<svg width="897" height="200" viewBox="0 0 897 200" fill="none" xmlns="http://www.w3.org/2000/svg">
<path d="M241.08 0V48.61H75.75L187.75 160.61L149.41 198.89H0V148.33H113.57L1.91 36.67L38.43 0.16L241.08 0Z" fill="#FEC544"/>
<path d="M241.08 58.98H192.98V198.89H241.79V125.48H296.29V198.89H346.11V0H296.49V76.95H241.58L241.08 58.98Z" fill="white"/>
<path d="M543.98 0H494.26L355.9 148.48V198.89H472.04V148.48H423.31L496.14 76.57V198.89H511.85L577.07 133.66L622.78 199.4L679.11 198.89V192.38L612 99.7L708.32 3.39V0H640.78L544.03 96.75L543.98 0Z" fill="white"/>
<path d="M737.98 0V198.89H688.87V44.95L733.8 0H737.98Z" fill="white"/>
<path d="M797.37 0H748.05V198.89H896.4V148.66H797.16L797.37 0Z" fill="white"/>
</svg>
